Coordinates
version=1
nRows=19
nColumns=24
inDegrees=yes

Units are S.I. units (second, meters, Newtons, ...)
Angles are in degrees.

endheader
time	pelvis_tilt	pelvis_list	pelvis_rotation	pelvis_tx	pelvis_ty	pelvis_tz	hip_flexion_r	hip_adduction_r	hip_rotation_r	knee_angle_r	ankle_angle_r	subtalar_angle_r	mtp_angle_r	hip_flexion_l	hip_adduction_l	hip_rotation_l	knee_angle_l	ankle_angle_l	subtalar_angle_l	mtp_angle_l	lumbar_extension	lumbar_bending	lumbar_rotation
      4.05000000	     -8.98449098	     -8.36113398	      1.89801477	     -0.99030629	     -0.01858777	      0.68720515	     15.38236353	     10.83721508	     -4.56432679	    -14.50998069	      1.22531768	     -5.75140037	      3.81606433	     26.62750580	    -14.20780037	     -7.40927710	    -65.90268227	     -8.06717418	     19.11136934	     21.42528979	      9.39372481	      8.75690411	     -3.43078067
      4.05500000	     -8.96406388	     -8.08945603	      1.49834305	     -0.98410723	     -0.01770743	      0.68769071	     14.57793272	     10.70642375	     -4.07656537	    -13.94394024	      1.37407222	     -5.56156985	      3.88049139	     27.37009426	    -14.03487096	     -7.85926718	    -65.57168143	     -7.82963604	     19.43884657	     21.55341195	      9.25226100	      8.57112661	     -2.82717176
      4.06000000	     -8.92991585	     -7.81850659	      1.08865346	     -0.97793579	     -0.01689698	      0.68818706	     13.77414763	     10.56947796	     -3.56441263	    -13.39985270	      1.52091912	     -5.40570501	      3.90781316	     28.08125927	    -13.87092523	     -8.31800688	    -65.17751336	     -7.58799119	     19.72882048	     21.63196839	      9.09340900	      8.38659781	     -2.21720814
      4.06500000	     -8.89449371	     -7.55641832	      0.68415311	     -0.97177306	     -0.01616653	      0.68868071	     12.98495860	     10.42885893	     -3.06047723	    -12.87814600	      1.67008356	     -5.26021403	      3.90178346	     28.77731391	    -13.71707951	     -8.76501843	    -64.71786244	     -7.34029934	     19.99448694	     21.65140128	      8.93427242	      8.20543161	     -1.62556211
      4.07000000	     -8.84591104	     -7.29836519	      0.27110664	     -0.96563932	     -0.01550355	      0.68917230	     12.19601248	     10.28292169	     -2.53690750	    -12.37664698	      1.82134935	     -5.13244761	      3.86199390	     29.44100807	    -13.57374142	     -9.21824286	    -64.19622491	     -7.08739757	     20.19474477	     21.59332139	      8.75807854	      8.02956801	     -1.02320383
      4.07500000	     -8.79358489	     -7.04990124	     -0.13788721	     -0.95952104	     -0.01492067	      0.68965736	     11.41676863	     10.13393095	     -2.02085132	    -11.89249843	      1.97650649	     -5.00912542	      3.80046334	     30.08619155	    -13.44112846	     -9.65843911	    -63.61441729	     -6.82856860	     20.35415887	     21.46460736	      8.57738317	      7.86011275	     -0.43875865
      4.08000000	     -8.72323925	     -6.80912469	     -0.55192059	     -0.95343421	     -0.01440352	      0.69013607	     10.63088446	      9.98230524	     -1.49339314	    -11.42446107	      2.13531244	     -4.90540775	      3.70872144	     30.69267544	    -13.32371279	    -10.10308862	    -62.97447645	     -6.56127506	     20.45096848	     21.23267627	      8.37468294	      7.69995343	      0.16067504
      4.08500000	     -8.65807599	     -6.57946650	     -0.95495901	     -0.94734753	     -0.01397568	      0.69060143	      9.86199988	      9.82682368	     -0.99463471	    -10.96935981	      2.30136272	     -4.78785066	      3.62190651	     31.28958965	    -13.21387670	    -10.52374622	    -62.27464359	     -6.29253339	     20.51308336	     20.94174501	      8.18094369	      7.54207403	      0.72372715
      4.09000000	     -8.58275173	     -6.36323287	     -1.35108889	     -0.94129177	     -0.01362255	      0.69105729	      9.09451626	      9.67225305	     -0.51402210	    -10.52672304	      2.47031972	     -4.66667864	      3.53804680	     31.86037900	    -13.11604743	    -10.92746646	    -61.51830438	     -6.01877593	     20.51690638	     20.57167572	      7.97326476	      7.39542665	      1.27890861
      4.09500000	     -8.50788095	     -6.15758064	     -1.73858818	     -0.93523934	     -0.01335319	      0.69147949	      8.33746895	      9.51260238	     -0.06304554	    -10.09466144	      2.64953518	     -4.53367354	      3.47574603	     32.41234951	    -13.02403034	    -11.31141354	    -60.70045791	     -5.74937405	     20.47677965	     20.15309730	      7.76915833	      7.25288627	      1.80839785
      4.10000000	     -8.42217065	     -5.96554570	     -2.11354296	     -0.92920012	     -0.01315789	      0.69187914	      7.57887723	      9.35313431	      0.36480050	     -9.67334585	      2.83208160	     -4.39376599	      3.43278748	     32.93288141	    -12.93911330	    -11.67206674	    -59.82284444	     -5.47405888	     20.40327981	     19.66530653	      7.55214091	      7.12177147	      2.32670120
      4.10500000	     -8.33689001	     -5.78867948	     -2.46991343	     -0.92317566	     -0.01304684	      0.69225480	      6.83160248	      9.19587109	      0.75106949	     -9.26190959	      3.02040876	     -4.24653446	      3.41985733	     33.43599434	    -12.85894946	    -12.00092979	    -58.88262790	     -5.20414434	     20.30337994	     19.14036269	      7.33874310	      6.99890376	      2.81221506
      4.11000000	     -8.24810788	     -5.62322728	     -2.80914522	     -0.91715981	     -0.01301807	      0.69260496	      6.09016716	      9.03711376	      1.10720837	     -8.85997466	      3.21954119	     -4.08671684	      3.44065021	     33.91473929	    -12.78094750	    -12.30466822	    -57.88054470	     -4.93645077	     20.18776713	     18.58293916	      7.11998947	      6.88101974	      3.27367674
      4.11500000	     -8.11258410	     -5.50192118	     -3.12094123	     -0.91118196	     -0.01305272	      0.69288718	      5.30654844	      8.90790737	      1.42947351	     -8.46563427	      3.42290518	     -3.92720299	      3.49958549	     34.33313499	    -12.72608639	    -12.54017253	    -56.84294324	     -4.61012953	     20.17549156	     17.82385386	      6.84132951	      6.80425997	      3.73732208
      4.12000000	     -8.07963918	     -5.34698762	     -3.40778822	     -0.90513827	     -0.01322762	      0.69312480	      4.64563321	      8.73463532	      1.70059871	     -8.08878901	      3.63260043	     -3.76093225	      3.56636843	     34.82570526	    -12.62279768	    -12.79331616	    -55.69574009	     -4.40307989	     19.97831574	     17.34447596	      6.69973817	      6.68842065	      4.08752413
      4.12500000	     -7.97169115	     -5.21124605	     -3.69831196	     -0.89912094	     -0.01340857	      0.69336935	      3.91415947	      8.56944172	      1.97763539	     -7.72870200	      3.86252057	     -3.56124356	      3.66550563	     35.19903333	    -12.53968176	    -13.02735490	    -54.48169343	     -4.16272910	     19.90118279	     16.78715263	      6.46545957	      6.58189014	      4.48209672
      4.13000000	     -7.82838887	     -5.12582877	     -3.94404541	     -0.89313975	     -0.01367257	      0.69351846	      3.15154935	      8.44216115	      2.19989532	     -7.37487249	      4.10433370	     -3.36089304	      3.80038207	     35.53337244	    -12.47619610	    -13.19234833	    -53.24428647	     -3.88597389	     19.90784532	     16.05515884	      6.18280091	      6.52454825	      4.85044446
      4.13500000	     -7.74227837	     -5.01939657	     -4.16053052	     -0.88706801	     -0.01405056	      0.69363023	      2.45583279	      8.28675563	      2.39802208	     -7.03412854	      4.35865906	     -3.17135114	      3.93173979	     35.88627256	    -12.37408534	    -13.34772771	    -51.91748842	     -3.62417561	     19.96076286	     15.36952041	      5.98690993	      6.43723776	      5.11536492
      4.14000000	     -7.72927388	     -4.90178907	     -4.34827234	     -0.88100312	     -0.01455621	      0.69371228	      1.85914797	      8.12216832	      2.57478990	     -6.72690193	      4.62123671	     -3.03715195	      3.99160509	     36.29112317	    -12.23764472	    -13.46346395	    -50.48960314	     -3.50556240	     19.97713619	     15.02528253	      5.87678745	      6.33176763	      5.38708139
